/* XPM */
static char *result[] = {
/* columns rows colors chars-per-pixel */
"32 32 3 1 ",
"  c black",
". c #FEFEFE",
"X c None",
/* pixels */
"XX............................XX",
"X..............................X",
"................................",
"................................",
"................................",
"................................",
"................................",
"...  ...  ..        .        ...",
"...  ...  ..        .        ...",
"...  ...  ..  .......  .........",
"...  ..  ...  .......  .........",
"...  ..  ...  .......  .........",
"...  .  ....  .......  .........",
"...  .  ....  .......  .........",
"...    .....        .  .........",
"...    .....        .  .........",
"...  .  ....  .......  .........",
"...  .  ....  .......  .........",
"...  ..  ...  .......  .........",
"...  ..  ...  .......  .........",
"...  ...  ..  .......  .........",
"...  ...  ..  .......  .........",
"...  ....  .  .......  .........",
"...  ....  .  .......        ...",
"...  ....  .  .......        ...",
"................................",
"................................",
"................................",
"................................",
"................................",
"X..............................X",
"XX............................XX"
};
