/* XPM */
static char *result[] = {
/* columns rows colors chars-per-pixel */
"32 33 91 1 ",
"  c #006500",
". c #066C00",
"X c #0D7300",
"o c #117700",
"O c #157B00",
"+ c #187E00",
"@ c #1C8200",
"# c #218700",
"$ c #248A00",
"% c #288E00",
"& c #2C9200",
"* c #309600",
"= c #359B00",
"- c #399F00",
"; c #3DA300",
": c #40A600",
"> c #45AB01",
", c #49AF01",
"< c #46AC09",
"1 c #49AF0A",
"2 c #4CB201",
"3 c #4EB40A",
"4 c #51B702",
"5 c #54BA03",
"6 c #59BF04",
"7 c #51B709",
"8 c #54BA0B",
"9 c #58BE0B",
"0 c #4DB311",
"q c #55BB14",
"w c #59BF13",
"e c #55BB18",
"r c #58BE18",
"t c #5CC203",
"y c #5CC20B",
"u c #5DC313",
"i c #5DC31B",
"p c #61C703",
"a c #66CC04",
"s c #68CE06",
"d c #60C60C",
"f c #64CA0B",
"g c #6ED40A",
"h c #70D60E",
"j c #60C614",
"k c #65CB14",
"l c #68CE12",
"z c #61C71B",
"x c #65CB1C",
"c c #68CE1B",
"v c #6CD214",
"b c #6CD21C",
"n c #70D614",
"m c #73D917",
"M c #71D71B",
"N c #73D91D",
"B c #5DC321",
"V c #60C623",
"C c #66CC22",
"Z c #68CE27",
"A c #63C928",
"S c #6DD323",
"D c #6DD32E",
"F c #71D723",
"G c #75DB23",
"H c #79DF27",
"J c #76DC2C",
"K c #78DE2B",
"L c #6FD531",
"P c #71D731",
"I c #76DC32",
"U c #7AE024",
"Y c #7CE22B",
"T c #7DE331",
"R c #7DE33C",
"E c #84EA25",
"W c #80E62B",
"Q c #85EB2C",
"! c #80E633",
"~ c #85EB37",
"^ c #89EF35",
"/ c #81E739",
"( c #85EB3C",
") c #89EF3C",
"_ c #8AF030",
"` c #8CF239",
"' c #92F83A",
"] c #99FF3C",
"[ c #86EC42",
"{ c #8CF242",
"} c #9AFF40",
/* pixels */
"b;=2jbb822yt5:=2>&;:;9Nv8;=->eVC",
"bc=O@#%3wzcbNNt6yu>$%&=3>>;><0ib",
"vfff27uj,4v'^Ubxuy2%@@#;2y65225a",
"S/{RC3:;2ydft5,2wVRDiw9y26v]_Myi",
"cr3;;9f5=&&=;272>==>28ij9,>::5al",
"2tj8>=&;y8>;=*$#%k2O .#=*<wb2=;4",
"=>5;O-8w>1eCKU6uST!z;>>:=>5:&#$*",
"26y,>;==>52>>>>jFHHMt;&%$#%*&>38",
";,3;=:::222tgvvS!Hc8213::>,5,;>>",
"uSJI>XO&,v5*OO@%3izVw=%&%=->,t22",
"2=&$%=q3;#=wC6:2;;d~`S>##1cd>,tl",
"F87uuy94>>-11>:;=&-5H)Kxy82-;5vF",
"bNNy6,&&-255zSC>#@1PVq:&=>;=%$>b",
">8SGF>&u8:3ziS{/Jzj8dQ^u,,,>&*7>",
"']]Ef2>=&1w>;=#%>54pmMjy,,-&>SK!",
"y;=;652282%*=*====5FC1;852:=;7SG",
"4-*>2,-;:&;,59cPCS/S2ymE']]]^Nlf",
"&=;>8u859,=#+=kp2-sW6jbNk2*#+oO&",
"&+ X&8J[S:@O&,=&27;%o#;&X=872,5>",
"2>-=&>9i:>3;:%.*-=j(k;#%**-&*1Cc",
"66sat4>>yM>&%&&->>*@X+&0AC3&@%,t",
">74>;;79qwikFWYYUNf5:185ydy5,>::",
"`!Sky822>&=zj95756y8jj82=:9FFzSY",
"u2*%*0iwezI(x3,>;>>3227>;=&#o+&>",
"kubYYc>=&*-:>>29>=;2y4y9>>7>24fv",
"1q02>9ljj5>9jcScw>-=-45ycJPZi8>:",
">BYY!JG5,t>>2bf>=:74;26yy9:;1>;&",
",;*=;:=*---331;8i3=2yyf6:&&*&%*:",
"*t^QHd>2lkyt4,:;:1eDr&..##$#*-&+",
"@&&&#O*,wzi44yvG~Y8:-%*,>>=>LC>*",
">,:;*&#@@#&&%O@-uJ/Jw>5t6226d422",
"*3w3>:>,thg6=$-y652-&$@@O$->>>;-",
"UbJTzzD0;;::uS9,;-;4yy24jHWFvmQ]"
};
