/* XPM */
static char *result[] = {
/* columns rows colors chars-per-pixel */
"32 32 194 2 ",
"   c #000001",
".  c #060007",
"X  c #150000",
"o  c #3B0500",
"O  c #2D0817",
"+  c #350C15",
"@  c #29151A",
"#  c #2B1718",
"$  c #341E1C",
"%  c #381818",
"&  c #3A231C",
"*  c #3C291D",
"=  c #392117",
"-  c #1E1F20",
";  c #232120",
":  c #3D2221",
">  c #352B21",
",  c #420000",
"<  c #4A0001",
"1  c #4B080D",
"2  c #550003",
"3  c #5B0200",
"4  c #5F0E01",
"5  c #4E120E",
"6  c #5E1204",
"7  c #54140E",
"8  c #5C150C",
"9  c #441112",
"0  c #4B1211",
"q  c #4F1E19",
"w  c #511410",
"e  c #5F1F13",
"r  c #630000",
"t  c #6B0000",
"y  c #630F00",
"u  c #6D0A00",
"i  c #7D0000",
"p  c #720000",
"a  c #621403",
"s  c #6C1400",
"d  c #641A04",
"f  c #6D1C06",
"g  c #641C0D",
"h  c #6D1D0A",
"j  c #711D06",
"k  c #711F0A",
"l  c #791300",
"z  c #631D11",
"x  c #4D2501",
"c  c #4B2806",
"v  c #542D00",
"b  c #5B3300",
"n  c #42261B",
"m  c #432A1D",
"M  c #4B2A1A",
"N  c #542E19",
"B  c #572718",
"V  c #54321B",
"C  c #5A321B",
"Z  c #593C1A",
"A  c #4E3417",
"S  c #6F210E",
"D  c #71220E",
"F  c #7E250B",
"G  c #6F2212",
"H  c #722512",
"J  c #732C1C",
"K  c #792A16",
"L  c #613F19",
"P  c #58362B",
"I  c #702E21",
"U  c #763527",
"Y  c #694718",
"T  c #7C591E",
"R  c #76531C",
"E  c #4F452E",
"W  c #5B4223",
"Q  c #4E4731",
"!  c #674924",
"~  c #7D5C27",
"^  c #78473A",
"/  c #625738",
"(  c #7B673A",
")  c #7D5345",
"_  c #776B44",
"`  c #6B6756",
"'  c #7A714A",
"]  c #810100",
"[  c #820E00",
"{  c #821500",
"}  c #831D00",
"|  c #852401",
" . c #85290B",
".. c #85250B",
"X. c #862C12",
"o. c #862E18",
"O. c #87331C",
"+. c #88341D",
"@. c #873017",
"#. c #873621",
"$. c #883621",
"%. c #853824",
"&. c #893A24",
"*. c #8A3E29",
"=. c #804D1F",
"-. c #865D1C",
";. c #885F1E",
":. c #8A601F",
">. c #92661C",
",. c #8A402C",
"<. c #8F4F27",
"1. c #825D22",
"2. c #8C4533",
"3. c #8D4C3A",
"4. c #8F5033",
"5. c #935C3C",
"6. c #8F6726",
"7. c #936824",
"8. c #9B722D",
"9. c #846938",
"0. c #8C703D",
"q. c #987538",
"w. c #A47D38",
"e. c #8D5F4E",
"r. c #915543",
"t. c #915947",
"y. c #925A48",
"u. c #95614B",
"i. c #857142",
"p. c #8B7A4C",
"a. c #877448",
"s. c #866353",
"d. c #896959",
"f. c #966553",
"g. c #996E5B",
"h. c #8C7E51",
"j. c #887657",
"k. c #8E7261",
"l. c #937B66",
"z. c #9F7A66",
"x. c #987866",
"c. c #A17E6A",
"v. c #8C8154",
"b. c #948453",
"n. c #9D905E",
"m. c #AF9152",
"M. c #B19353",
"N. c #AA8848",
"B. c #97826F",
"V. c #9F9360",
"C. c #9E8E79",
"Z. c #928C78",
"A. c #A3826D",
"S. c #A29460",
"D. c #A69964",
"F. c #A99B66",
"G. c #A58672",
"H. c #A68A75",
"J. c #A3927D",
"K. c #AA917A",
"L. c #B4A56A",
"P. c #B6A96E",
"I. c #B8AA6F",
"U. c #B6A467",
"Y. c #BAAD72",
"T. c #B5AA71",
"R. c #BEB073",
"E. c #C0AC6D",
"W. c #C2B375",
"Q. c #C6B879",
"!. c #AD9F89",
"~. c #A99983",
"^. c #B29F86",
"/. c #B29F88",
"(. c #AEA38C",
"). c #B4A48C",
"_. c #B9AB93",
"`. c #B5AB93",
"'. c #BDB49B",
"]. c #B7B098",
"[. c #C3BDA3",
"{. c #C5C1A7",
"}. c #C7C2A8",
"|. c #C9C6AC",
" X c #CBC9AE",
".X c #CECDB1",
"XX c #CFD0B4",
"oX c #D1D2B6",
"OX c #D4D6B9",
"+X c #D6D9BC",
"@X c #D9DBBE",
"#X c #DBDFC1",
"$X c #DCE1C3",
"%X c None",
/* pixels */
"%X%X%X%X%X%X%X%X%X%X%X%X      X $ % %X%X%X%X%X%X%X%X%X%X%X%X%X%X",
"%X%X%X%X%X%X%X%X@ : P Z.].].].d.3 g 7 < o . %X%X%X%X%X%X%X%X%X%X",
"%X%X%X%X%X@ 9 B I 3 ).@X#X+X#X].l o...D ^ ^ 2 , : %X%X%X%X%X%X%X",
"%X%X%X%X0 6 h i } ,.u.).).).K.2.$.@.2.'. X|.(.^ 3 q + %X%X%X%X%X",
"%X%X%X7 f D ..r.). X^.] | | i ] &.X.2.}.@XoXOX|.e.t z 0 %X%X%X%X",
"%X%X7 s H O.X.'.+XoX|.5.<.<.A.z.X.&.| 3.`..XXX.Xu.{ J s 7 %X%X%X",
"%X0 h J $.o.$.}.XXoX X4.{ A.#X[.{ @.,.| } g.x.x.g.| #.f s 7 %X%X",
"9 g p i @.$...'.+X XK.o.] G.|.c.| ,.&.,.$.| i f.OXc.i U s d 0 %X",
"B r d._.r.| X.r.K.r.] $.$.o.} | | ] ] [ O.*.*.X.z.g.} I H f a + ",
"t ^ [.#X~.] *. .i  .*.$.#.+.*.[ f._.).G.o. .&.$.] { t r u H f 0 ",
"r k.XXOX^.] &.&.,.$.O.+.$.*.| r.}.+XOXOX'.3.X.*.&.j l.!.^ t S 6 ",
"r s.OXOXc.{ &.+.$.,.,.&.O.2.i G.+X X X X+X_.] %.t ) .X#X~.r H d ",
"s h ~.G.] &.+.*.@.] i | &.*.} f.|.OXOXOXOXJ.u J 3 d..XoX X) t g ",
"k s r t K #.*.} 2.A.G.y...&.&.X.r.!.'.'.J.t s J t ^ {.oXoXs.t g ",
"j h H G h H j U '.OXOX[.K j K K p r r r r s k S J r C.#X(.u f d ",
"j j h j h H r B.OX.X.XoXC.3 H s S H D H D S f f G t U k.G t g 6 ",
"g j k j h H r k.oX.X.XOXl.r H f k f f j j f j f f D s r j g y 0 ",
"%Xh j h j H s h ].OXoX(.r D f f f k j f j f f j j j G J g y 8 %X",
"%X%X8 a d d h s I C.l.t D D k D f h j k D S S f f d a 4 a 8 %X%X",
"%X%X%Xw 6 r 6 g 3 2 3 s h d d f f f d f s d a 6 d 6 4 4 w %X%X%X",
"%X%X%X%X$ B 1 2 g 8 z e g g 6 6 8 6 a a 6 6 6 6 2 1 B & %X%X%X%X",
"%X%X%X%X%X;.T Y % O O 1 < < < < < < < 1 9 O O % L T -.%X%X%X%X%X",
"%X%X%X%X* -.:.~ ! Y R P ( i.i.i.i.0.~ R * - ; W ~ >.:.m %X%X%X%X",
"%X%X%X%X* -.6.! 2 d.l.a Y.D.i.p.p.i.q.N.#   . c Y 6.-.%X%X%X%X%X",
"%X%X%X%X* -.8.0.A ` ` a.V.Z x c c c W m.v.> Q E 9.8.-.%X%X%X%X%X",
"%X%X%X%X& :.w.L.T.L.L.L.! x C M m V o _ Y.P.L.I.U.w.;.m %X%X%X%X",
"%X%X%X%X@ >.m.T.Y.I.R.V.Y Z N M M C A Y n.R.I.I.Y.M.7.%X%X%X%X%X",
"%X%X%X%X%X9.I.I.P.P.R.a.b > n n * # & b p.Y.I.P.Y.I.9.%X%X%X%X%X",
"%X%X%X%X%X%XD.W.I.L.R.h.v $ M n * = & v v.R.P.P.R.D.%X%X%X%X%X%X",
"%X%X%X%X%X%X%XD.Q.R.W.p.b & N M M N n v p.I.I.W.D.%X%X%X%X%X%X%X",
"%X%X%X%X%X%X%X%Xv.F.W.b.b n L B N C m b b.Q.R.S.%X%X%X%X%X%X%X%X",
"%X%X%X%X%X%X%X%X%X%X' / % $ $ $ $ & $ = / j._ %X%X%X%X%X%X%X%X%X"
};
