/* XPM */
static char *result[] = {
/* columns rows colors chars-per-pixel */
"29 29 106 2 ",
"   c #493728",
".  c #523A23",
"X  c #543F2D",
"o  c #7C4310",
"O  c #5C4028",
"+  c #5D4028",
"@  c #794F37",
"#  c #7D5338",
"$  c #7E5339",
"%  c #85450B",
"&  c #86450B",
"*  c #8A480D",
"=  c #9C4A00",
"-  c #9D4A00",
";  c #854914",
":  c #9C5514",
">  c #9C581D",
",  c #9D581D",
"<  c #9C591D",
"1  c #9D591D",
"2  c #9C5A1D",
"3  c #9C591E",
"4  c #9D591E",
"5  c #9E591E",
"6  c #9C5A1E",
"7  c #9D5A1E",
"8  c #A04D02",
"9  c #A65104",
"0  c #AB5306",
"q  c #AA5406",
"w  c #AB5406",
"e  c #A2510D",
"r  c #B05708",
"t  c #B15708",
"y  c #B05808",
"u  c #B15808",
"i  c #B3590A",
"p  c #B75C0B",
"a  c #B75D0B",
"s  c #B75C0C",
"d  c #B85C0B",
"f  c #B85C0C",
"g  c #A05717",
"h  c #A15717",
"j  c #A15816",
"k  c #A15817",
"l  c #AC5E1A",
"z  c #AB591C",
"x  c #AB5A1C",
"c  c #AC591C",
"v  c #B75F15",
"b  c #B75F16",
"n  c #BD600E",
"m  c #BD610E",
"M  c #BE600E",
"N  c #BE610E",
"B  c #BE600F",
"V  c #A25923",
"C  c #B66121",
"Z  c #BA6323",
"A  c #BA6423",
"S  c #B26129",
"D  c #B9672C",
"F  c #BA682C",
"G  c #BB6C2D",
"H  c #B1683F",
"J  c #C1630F",
"K  c #C3630F",
"L  c #CD6A15",
"P  c #C4681B",
"I  c #CE6F1E",
"U  c #CE6E1F",
"Y  c #CD702B",
"T  c #C97134",
"R  c #C4783F",
"E  c #C5783F",
"W  c #C4793F",
"Q  c #C5793F",
"!  c #D37737",
"~  c #D47737",
"^  c #885F53",
"/  c #8C6355",
"(  c #BF6E42",
")  c #B07059",
"_  c #B0725B",
"`  c #C06F43",
"'  c #C37940",
"]  c #C47840",
"[  c #C57940",
"{  c #C57941",
"}  c #C97849",
"|  c #CE7949",
" . c #D37C4B",
".. c #CE7E60",
"X. c #D18145",
"o. c #D28145",
"O. c #D18146",
"+. c #D28146",
"@. c #D18246",
"#. c #D9804D",
"$. c #DC894A",
"%. c #DD895E",
"&. c #D28161",
"*. c #DD8865",
"=. c #DE8866",
"-. c None",
/* pixels */
"-.-.-.-.-.-.-.-.-.-.-.-.-.-.-.-.-.-.-.-.-.-.-.-.-.-.-.-.-.",
"-.-.G k ; F b d y d y a t s y f y f y f y f r j ; D U L -.",
"-.{ g X -.-.} v f y f 9 i 9 i 9 i 9 i 9 i 9 : X -.-.} I -.",
"-.O.+ -.-.-.-.T 9 i 9 = = = = = = = = = = = . -.-.-.-.~ -.",
"-.W $ -.-.-.) c = = = = = = = = = = = = = = @ -.-.-.) Y -.",
"-.@. ./ -._ x = = = = = = = = = = = = = = = ` ^ -._ x m -.",
"-.' p  .&.z = = = = = = = = = = = = = = = = - ( ..z = N -.",
"-.o.u f 9 = = = = = = = = = = = = = = = = = = = = = = N -.",
"-.E a 9 = = = = = = = = = = = = = = = = = = = = = = = N -.",
"-.O.y 8 = = = = = = = = = = = = = = = = = = = = = = = n -.",
"-.Q a 9 = = = = = = = = = = = = = = = = = = = = = = = n -.",
"-.X.r 8 = = = = = = = = = = = = = = = = = = = = = = = N -.",
"-.W d 9 = = = = = = = = = = = = = = = = = = = = = = = N -.",
"-.X.t 8 = = = = = = = = = = = = = = = = = = = = = = = N -.",
"-.W d 9 = = = = = = = = = = = = = = = = = = = = = = = M -.",
"-.X.t 8 = = = = = = = = = = = = = = = = = = = = = = = n -.",
"-.[ s 9 = = = = = = = = = = = = = = = = = = = = = = = m -.",
"-.+.r 8 = = = = = = = = = = = = = = = = = = = = = = = B -.",
"-.R f 9 = = = = = = = = = = = = = = = = = = = = = = = m -.",
"-.X.y 8 = = = = = = = = = = = = = = = = = = = = = = = n -.",
"-.] f 9 = = = = = = = = = = = = = = = = = = = = = = = N -.",
"-.X.r * o V e = = = = = = = = = = = = = = = = & o V e M -.",
"-.R h X -.-.H e = = = = = = = = = = = = = = %   -.-.H P -.",
"-.X.O -.-.-.-.S = = = = = = = = = = = = = = . -.-.-.-.! -.",
"-.R # -.-.-.) c = = = = = = = = = = = = = = @ -.-.-.) Y -.",
"-.-.%.-.-._ x = = = = = = = = = = = = = = = ` ^ -._ C J -.",
"-.-.$.#.=.Z w q w w w w w w 0 w w q q q w w q | *.A K l -.",
"-.-.-.-.7 1 4 1 1 1 2 6 > 4 3 1 5 1 4 < 4 3 , 4 4 2 3 -.-.",
"-.-.-.-.-.-.-.-.-.-.-.-.-.-.-.-.-.-.-.-.-.-.-.-.-.-.-.-.-."
};
